<?xml version="1.0" encoding="iso-8859-1"?>
<!-- Generator: Adobe Illustrator 16.0.0, SVG Export Plug-In . SVG Version: 6.00 Build 0)  -->
<!DOCTYPE svg PUBLIC "-//W3C//DTD SVG 1.1//EN" "http://www.w3.org/Graphics/SVG/1.1/DTD/svg11.dtd">
<svg version="1.1" id="Capa_1" xmlns="http://www.w3.org/2000/svg" xmlns:xlink="http://www.w3.org/1999/xlink" x="0px" y="0px"
	 width="480.21px" height="480.211px" viewBox="0 0 480.21 480.211" style="enable-background:new 0 0 480.21 480.211;"
	 xml:space="preserve">
<g>
	<g>
		<path d="M53.982,430.929h1.529c6.352,0,7.961-4.297,7.961-8.296v-6.235l129.554,12.844L197.917,459
			c5.62-4.444,9.084,16.651,9.084,16.651c12.952,10.303,33.192-0.076,33.192-0.076s19.31,10.379,32.258,0.076
			c0,0,3.462-21.096,9.085-16.651l4.889-29.759l130.313-12.912v6.304c0,3.999-0.136,8.296,6.212,8.296h1.53
			c6.348,0,7.959-4.297,7.959-8.296v-47.271c0-4.003-1.611-22.938-7.959-22.938h-1.53c-4.132,0-5.507,8.011-5.968,14.719
			l-55.198-53.282v-36.752c0-6.104-4.94-34.588-11.028-34.588h-1.482c-6.092,0-11.036,28.484-11.036,34.588v14.021l-7.851-7.573
			v-28.71c1.907,0.461,3.502,0.942,4.544,1.411l2.332-17.817c0,0-2.989-2.837-7.546-7.207c-1.53-10.51-5.594-27.97-10.363-27.97
			h-1.479c-2.408,0-4.641,4.48-6.456,10.253c-12.307-12.044-24.846-24.628-27.102-28.074c-4.653-7.111-22.326-70.393-25.652-112.715
			S240.202,0,240.202,0s-16.096,30.404-19.43,72.727c-3.338,42.322-21.003,105.604-25.655,112.715
			c-2.224,3.4-14.399,15.631-26.511,27.491c-1.773-5.492-3.934-9.67-6.264-9.67h-1.479c-4.646,0-8.61,16.524-10.243,27.1
			c-5.031,4.833-8.439,8.069-8.439,8.069l2.334,17.825c1.176-0.537,3.058-1.074,5.312-1.596v28.137l-7.851,7.582v-13.289
			c0-6.087-4.943-34.571-11.035-34.571h-1.48c-6.089,0-11.034,28.484-11.034,34.588v36.019l-55.724,53.788
			c-0.998-6.673-3.102-14.491-7.191-14.491h-1.529c-6.352,0-6.211,18.936-6.211,22.938v47.271
			C47.771,426.632,47.631,430.929,53.982,430.929z M306.835,250.951v9.874l-11.638-11.249
			C295.198,249.576,300.263,250.105,306.835,250.951z M173.378,250.851c6.193-0.789,10.87-1.274,10.87-1.274l-10.87,10.495V250.851z
			"/>
	</g>
</g>
<g>
</g>
<g>
</g>
<g>
</g>
<g>
</g>
<g>
</g>
<g>
</g>
<g>
</g>
<g>
</g>
<g>
</g>
<g>
</g>
<g>
</g>
<g>
</g>
<g>
</g>
<g>
</g>
<g>
</g>
</svg>
