<?xml version="1.0" encoding="UTF-8" standalone="no"?>
<!-- Generator: Adobe Illustrator 16.0.0, SVG Export Plug-In . SVG Version: 6.00 Build 0)  -->

<svg
   xmlns:dc="http://purl.org/dc/elements/1.1/"
   xmlns:cc="http://creativecommons.org/ns#"
   xmlns:rdf="http://www.w3.org/1999/02/22-rdf-syntax-ns#"
   xmlns:svg="http://www.w3.org/2000/svg"
   xmlns="http://www.w3.org/2000/svg"
   xmlns:sodipodi="http://sodipodi.sourceforge.net/DTD/sodipodi-0.dtd"
   xmlns:inkscape="http://www.inkscape.org/namespaces/inkscape"
   version="1.1"
   id="Capa_1"
   x="0px"
   y="0px"
   width="32px"
   height="32px"
   viewBox="0 0 32 32"
   style="enable-background:new 0 0 32 32;"
   xml:space="preserve"
   sodipodi:docname="ntds.svg"
   inkscape:version="0.92.2 (5c3e80d, 2017-08-06)"><metadata
     id="metadata44"><rdf:RDF><cc:Work
         rdf:about=""><dc:format>image/svg+xml</dc:format><dc:type
           rdf:resource="http://purl.org/dc/dcmitype/StillImage" /></cc:Work></rdf:RDF></metadata><defs
     id="defs42" /><sodipodi:namedview
     pagecolor="#ffffff"
     bordercolor="#666666"
     borderopacity="1"
     objecttolerance="10"
     gridtolerance="10"
     guidetolerance="10"
     inkscape:pageopacity="0"
     inkscape:pageshadow="2"
     inkscape:window-width="856"
     inkscape:window-height="626"
     id="namedview40"
     showgrid="false"
     inkscape:zoom="10.429825"
     inkscape:cx="11.676887"
     inkscape:cy="17.743498"
     inkscape:window-x="605"
     inkscape:window-y="249"
     inkscape:window-maximized="0"
     inkscape:current-layer="Capa_1" /><g
     id="g7"><g
       id="Laptop"><g
         id="g4"><path
           d="M 28.118644,4.8135593 H 3.8813559 c -1.5418644,0 -2.7966101,1.2547458 -2.7966101,2.7966102 V 19.728814 c 0,1.541864 1.2547457,2.79661 2.7966101,2.79661 H 28.118644 c 1.541864,0 2.79661,-1.254746 2.79661,-2.79661 V 7.6101695 c 0,-1.5418644 -1.254746,-2.7966102 -2.79661,-2.7966102 z m 0.932203,14.9152547 c 0,0.513644 -0.417627,0.932203 -0.932203,0.932203 H 3.8813559 c -0.5145762,0 -0.9322034,-0.418559 -0.9322034,-0.932203 V 7.6101695 c 0,-0.5136441 0.4176272,-0.9322034 0.9322034,-0.9322034 H 28.118644 c 0.514576,0 0.932203,0.4185593 0.932203,0.9322034 z m 0.466102,4.661017 h -9.788135 c 0,0.514576 -0.416695,0.932203 -0.932204,0.932203 h -5.59322 c -0.515509,0 -0.932204,-0.417627 -0.932204,-0.932203 H 2.4830508 c -0.7718644,0 -1.398305,0.62644 -1.398305,1.398305 0,0.771864 0.6264406,1.398305 1.398305,1.398305 H 29.516949 c 0.771865,0 1.398305,-0.626441 1.398305,-1.398305 0,-0.771865 -0.62644,-1.398305 -1.398305,-1.398305 z"
           id="path2"
           inkscape:connector-curvature="0"
           style="stroke-width:0.93220341" /></g></g></g><g
     id="g9" /><g
     id="g11" /><g
     id="g13" /><g
     id="g15" /><g
     id="g17" /><g
     id="g19" /><g
     id="g21" /><g
     id="g23" /><g
     id="g25" /><g
     id="g27" /><g
     id="g29" /><g
     id="g31" /><g
     id="g33" /><g
     id="g35" /><g
     id="g37" /></svg>