<?xml version="1.0" encoding="UTF-8" standalone="no"?>
<!-- Generator: Adobe Illustrator 19.0.0, SVG Export Plug-In . SVG Version: 6.00 Build 0)  -->

<svg
   xmlns:dc="http://purl.org/dc/elements/1.1/"
   xmlns:cc="http://creativecommons.org/ns#"
   xmlns:rdf="http://www.w3.org/1999/02/22-rdf-syntax-ns#"
   xmlns:svg="http://www.w3.org/2000/svg"
   xmlns="http://www.w3.org/2000/svg"
   xmlns:sodipodi="http://sodipodi.sourceforge.net/DTD/sodipodi-0.dtd"
   xmlns:inkscape="http://www.inkscape.org/namespaces/inkscape"
   version="1.1"
   id="Capa_1"
   x="0px"
   y="0px"
   viewBox="0 0 512 512"
   style="enable-background:new 0 0 512 512;"
   xml:space="preserve"
   sodipodi:docname="fix-center-2.svg"
   inkscape:version="0.92.2 (5c3e80d, 2017-08-06)"><metadata
     id="metadata50"><rdf:RDF><cc:Work
         rdf:about=""><dc:format>image/svg+xml</dc:format><dc:type
           rdf:resource="http://purl.org/dc/dcmitype/StillImage" /></cc:Work></rdf:RDF></metadata><defs
     id="defs48" /><sodipodi:namedview
     pagecolor="#ffffff"
     bordercolor="#666666"
     borderopacity="1"
     objecttolerance="10"
     gridtolerance="10"
     guidetolerance="10"
     inkscape:pageopacity="0"
     inkscape:pageshadow="2"
     inkscape:window-width="640"
     inkscape:window-height="480"
     id="namedview46"
     showgrid="false"
     inkscape:zoom="0.4609375"
     inkscape:cx="256"
     inkscape:cy="256"
     inkscape:window-x="535"
     inkscape:window-y="455"
     inkscape:window-maximized="0"
     inkscape:current-layer="Capa_1" /><g
     id="g6"
     style="fill:#000000"><path
       style="fill:#000000"
       d="M501.333,245.333H447.46c-5.388-97.341-83.443-175.405-180.793-180.793V10.667   C266.667,4.771,261.896,0,256,0c-5.896,0-10.667,4.771-10.667,10.667V64.54c-97.35,5.388-175.405,83.452-180.793,180.793H10.667   C4.771,245.333,0,250.104,0,256c0,5.896,4.771,10.667,10.667,10.667H64.54c5.388,97.341,83.443,175.405,180.793,180.793v53.874   c0,5.896,4.771,10.667,10.667,10.667c5.896,0,10.667-4.771,10.667-10.667V447.46c97.35-5.388,175.405-83.452,180.793-180.793   h53.874c5.896,0,10.667-4.771,10.667-10.667C512,250.104,507.229,245.333,501.333,245.333z M256,426.667   c-94.104,0-170.667-76.563-170.667-170.667S161.896,85.333,256,85.333S426.667,161.896,426.667,256S350.104,426.667,256,426.667z"
       id="path2" /><path
       style="fill:#000000"
       d="M256,170.667c-47.063,0-85.333,38.281-85.333,85.333s38.271,85.333,85.333,85.333   s85.333-38.281,85.333-85.333S303.063,170.667,256,170.667z"
       id="path4" /></g><linearGradient
     id="SVGID_1_"
     gradientUnits="userSpaceOnUse"
     x1="-44.6025"
     y1="639.1005"
     x2="-24.8038"
     y2="629.8682"
     gradientTransform="matrix(21.3333,0,0,-21.3333,1135.1809,13893.633)"><stop
       offset="0"
       style="stop-color:#FFFFFF;stop-opacity:0.2"
       id="stop8" /><stop
       offset="1"
       style="stop-color:#FFFFFF;stop-opacity:0"
       id="stop10" /></linearGradient><g
     id="g15" /><g
     id="g17" /><g
     id="g19" /><g
     id="g21" /><g
     id="g23" /><g
     id="g25" /><g
     id="g27" /><g
     id="g29" /><g
     id="g31" /><g
     id="g33" /><g
     id="g35" /><g
     id="g37" /><g
     id="g39" /><g
     id="g41" /><g
     id="g43" /></svg>