<?xml version="1.0" encoding="UTF-8" standalone="no"?>
<!-- Generator: Adobe Illustrator 19.0.0, SVG Export Plug-In . SVG Version: 6.00 Build 0)  -->

<svg
   xmlns:dc="http://purl.org/dc/elements/1.1/"
   xmlns:cc="http://creativecommons.org/ns#"
   xmlns:rdf="http://www.w3.org/1999/02/22-rdf-syntax-ns#"
   xmlns:svg="http://www.w3.org/2000/svg"
   xmlns="http://www.w3.org/2000/svg"
   xmlns:sodipodi="http://sodipodi.sourceforge.net/DTD/sodipodi-0.dtd"
   xmlns:inkscape="http://www.inkscape.org/namespaces/inkscape"
   version="1.1"
   id="Layer_1"
   x="0px"
   y="0px"
   viewBox="0 0 503.532 503.532"
   style="enable-background:new 0 0 503.532 503.532;"
   xml:space="preserve"
   sodipodi:docname="loupe.svg"
   inkscape:version="0.92.2 (5c3e80d, 2017-08-06)"><metadata
     id="metadata43"><rdf:RDF><cc:Work
         rdf:about=""><dc:format>image/svg+xml</dc:format><dc:type
           rdf:resource="http://purl.org/dc/dcmitype/StillImage" /></cc:Work></rdf:RDF></metadata><defs
     id="defs41" /><sodipodi:namedview
     pagecolor="#ffffff"
     bordercolor="#666666"
     borderopacity="1"
     objecttolerance="10"
     gridtolerance="10"
     guidetolerance="10"
     inkscape:pageopacity="0"
     inkscape:pageshadow="2"
     inkscape:window-width="732"
     inkscape:window-height="480"
     id="namedview39"
     showgrid="false"
     inkscape:zoom="0.46868917"
     inkscape:cx="251.76601"
     inkscape:cy="251.76601"
     inkscape:window-x="0"
     inkscape:window-y="0"
     inkscape:window-maximized="0"
     inkscape:current-layer="Layer_1" /><g
     id="g6"
     transform="matrix(0.9,0,0,0.9,25.176644,25.1766)"><g
       id="g4"><path
         d="M 456.895,46.66 C 426.803,16.564 386.808,0 344.248,0 301.696,0 261.688,16.568 231.596,46.66 176.952,101.3 170.408,186.084 211.9,247.984 l -2.952,2.944 c -8.244,8.256 -10.4,20.328 -6.476,30.608 l -29.828,29.824 -3.432,-3.424 c -1.508,-1.508 -3.92,-1.548 -5.48,-0.084 L 8.564,453.796 c -11.356,11.36 -11.356,29.84 0,41.196 5.508,5.504 12.812,8.54 20.6,8.54 7.772,0 15.084,-3.036 20.672,-8.624 L 195.708,339.824 c 1.452,-1.552 1.416,-3.98 -0.084,-5.48 l -3.436,-3.432 29.832,-29.82 c 3.304,1.256 6.792,1.916 10.276,1.916 7.364,0 14.728,-2.792 20.328,-8.4 l 2.916,-2.92 c 26.024,17.52 56.636,26.94 88.708,26.94 42.56,0 82.556,-16.576 112.648,-46.664 62.12,-62.12 62.12,-163.192 -0.001,-225.304 z m -27.771,197.52 c -22.672,22.66 -52.816,35.152 -84.876,35.152 -32.064,0 -62.208,-12.492 -84.872,-35.152 -46.8,-46.792 -46.8,-122.944 0,-169.744 22.664,-22.676 52.808,-35.152 84.88,-35.152 32.06,0 62.204,12.476 84.868,35.144 46.804,46.792 46.804,122.944 0,169.752 z"
         id="path2"
         inkscape:connector-curvature="0" /></g></g><g
     id="g8" /><g
     id="g10" /><g
     id="g12" /><g
     id="g14" /><g
     id="g16" /><g
     id="g18" /><g
     id="g20" /><g
     id="g22" /><g
     id="g24" /><g
     id="g26" /><g
     id="g28" /><g
     id="g30" /><g
     id="g32" /><g
     id="g34" /><g
     id="g36" /></svg>