<?xml version="1.0" encoding="iso-8859-1"?>
<!-- Generator: Adobe Illustrator 18.1.1, SVG Export Plug-In . SVG Version: 6.00 Build 0)  -->
<svg version="1.1" id="Capa_1" xmlns="http://www.w3.org/2000/svg" xmlns:xlink="http://www.w3.org/1999/xlink" x="0px" y="0px"
	 viewBox="0 0 15.052 15.052" style="enable-background:new 0 0 15.052 15.052;" xml:space="preserve">
<g>
	<g>
		<path style="fill:#030104;" d="M12.705,0c-1.216,0-2.204,0.987-2.204,2.206c0,0.238,0.04,0.466,0.108,0.68
			c0.123,0.434,1.258,3.484,1.74,4.78c-0.232,0.088-0.397,0.308-0.397,0.57c0,0.339,0.275,0.614,0.614,0.614
			c0.34,0,0.614-0.275,0.614-0.614c0-0.011-0.005-0.021-0.007-0.032c-0.001-0.068-0.015-0.132-0.038-0.19
			c-0.005-0.016-0.013-0.027-0.021-0.042c-0.02-0.041-0.043-0.079-0.074-0.111c-0.062-0.077-0.135-0.144-0.226-0.184
			c0.524-1.218,1.729-4.029,1.956-4.699c0.089-0.24,0.141-0.5,0.141-0.772C14.913,0.987,13.925,0,12.705,0z M12.764,3.621
			c-0.776,0-1.406-0.63-1.406-1.407s0.63-1.406,1.406-1.406c0.778,0,1.408,0.629,1.408,1.406C14.171,2.99,13.542,3.621,12.764,3.621
			z"/>
		<circle style="fill:#030104;" cx="12.763" cy="2.178" r="1.026"/>
		<path style="fill:#030104;" d="M0.14,4.713c0.119-0.025,2.525-0.527,4.417,0.806V2.674L0.14,3.155V4.713z"/>
		<polygon style="fill:#030104;" points="0.14,14.087 4.557,13.607 4.557,10.775 0.14,11.073 		"/>
		<path style="fill:#030104;" d="M0.14,5.185v5.298l4.417-0.299V6.136C2.785,4.656,0.168,5.177,0.14,5.185z"/>
		<path style="fill:#030104;" d="M5.201,6.796v3.463l0.024-0.123l4.393,0.912v-1.91c-0.167,0.009-0.33,0.014-0.479,0.014
			C7.278,9.152,6.665,8.504,5.201,6.796z"/>
		<polygon style="fill:#030104;" points="5.201,13.607 9.617,15.052 9.617,11.651 5.201,10.734 		"/>
		<path style="fill:#030104;" d="M5.201,6.078c0.06,0.063,0.124,0.121,0.183,0.19l0.032,0.039C7.083,8.254,7.529,8.775,9.618,8.66
			V4.121L5.201,2.674V6.078z"/>
		<polygon style="fill:#030104;" points="10.17,15.052 14.59,14.087 14.59,10.788 10.17,11.659 		"/>
		<path style="fill:#030104;" d="M13.965,8.227c0,0.745-0.604,1.35-1.353,1.35c-0.546,0-1.017-0.326-1.229-0.796l-1.15,0.314
			c-0.022,0.003-0.041,0.004-0.063,0.006v1.958l4.419-0.873V7.907l-0.638,0.175C13.956,8.13,13.965,8.177,13.965,8.227z"/>
		<path style="fill:#030104;" d="M13.817,7.621l0.709-0.192l0.063-0.009v-2.2c-0.101,0.147-0.865,2.261-0.865,2.261
			C13.755,7.528,13.791,7.571,13.817,7.621z"/>
		<path style="fill:#030104;" d="M11.262,8.227c0-0.296,0.104-0.559,0.265-0.78c0,0-1.126-2.59-1.356-3v4.17l1.1-0.3
			C11.268,8.286,11.262,8.257,11.262,8.227z"/>
	</g>
</g>
<g>
</g>
<g>
</g>
<g>
</g>
<g>
</g>
<g>
</g>
<g>
</g>
<g>
</g>
<g>
</g>
<g>
</g>
<g>
</g>
<g>
</g>
<g>
</g>
<g>
</g>
<g>
</g>
<g>
</g>
</svg>
