<?xml version="1.0" encoding="UTF-8" standalone="no"?>
<!-- Generator: Adobe Illustrator 19.0.0, SVG Export Plug-In . SVG Version: 6.00 Build 0)  -->

<svg
   xmlns:dc="http://purl.org/dc/elements/1.1/"
   xmlns:cc="http://creativecommons.org/ns#"
   xmlns:rdf="http://www.w3.org/1999/02/22-rdf-syntax-ns#"
   xmlns:svg="http://www.w3.org/2000/svg"
   xmlns="http://www.w3.org/2000/svg"
   xmlns:sodipodi="http://sodipodi.sourceforge.net/DTD/sodipodi-0.dtd"
   xmlns:inkscape="http://www.inkscape.org/namespaces/inkscape"
   version="1.1"
   id="Layer_1"
   x="0px"
   y="0px"
   viewBox="0 0 511.999 511.999"
   style="enable-background:new 0 0 511.999 511.999;"
   xml:space="preserve"
   sodipodi:docname="markup.svg"
   inkscape:version="0.92.2 (5c3e80d, 2017-08-06)"><metadata
     id="metadata181"><rdf:RDF><cc:Work
         rdf:about=""><dc:format>image/svg+xml</dc:format><dc:type
           rdf:resource="http://purl.org/dc/dcmitype/StillImage" /></cc:Work></rdf:RDF></metadata><defs
     id="defs179" /><sodipodi:namedview
     pagecolor="#ffffff"
     bordercolor="#666666"
     borderopacity="1"
     objecttolerance="10"
     gridtolerance="10"
     guidetolerance="10"
     inkscape:pageopacity="0"
     inkscape:pageshadow="2"
     inkscape:window-width="1182"
     inkscape:window-height="765"
     id="namedview177"
     showgrid="false"
     inkscape:zoom="0.46093841"
     inkscape:cx="255.9995"
     inkscape:cy="255.9995"
     inkscape:window-x="0"
     inkscape:window-y="0"
     inkscape:window-maximized="0"
     inkscape:current-layer="Layer_1" /><g
     id="g255"
     transform="matrix(0.90677966,0,0,0.90677966,23.86436,23.86436)"><g
       id="g6"><g
         id="g4"><path
           id="path2"
           d="m 200.312,178.766 40.451,40.451 v -57.25 c -14.921,2.411 -28.69,8.296 -40.451,16.799 z"
           inkscape:connector-curvature="0" /></g></g><g
       id="g12"><g
         id="g10"><path
           id="path8"
           d="m 200.312,333.234 c 11.761,8.504 25.531,14.389 40.451,16.798 v -57.25 z"
           inkscape:connector-curvature="0" /></g></g><g
       id="g18"><g
         id="g16"><path
           id="path14"
           d="m 292.782,271.235 40.451,40.451 c 8.504,-11.761 14.389,-25.531 16.798,-40.451 z"
           inkscape:connector-curvature="0" /></g></g><g
       id="g24"><g
         id="g22"><path
           id="path20"
           d="m 271.235,292.782 v 57.25 c 14.921,-2.409 28.69,-8.294 40.451,-16.798 z"
           inkscape:connector-curvature="0" /></g></g><g
       id="g30"><g
         id="g28"><path
           id="path26"
           d="m 161.968,271.235 c 2.409,14.921 8.294,28.69 16.798,40.451 l 40.451,-40.451 z"
           inkscape:connector-curvature="0" /></g></g><g
       id="g36"><g
         id="g34"><path
           id="path32"
           d="m 271.235,161.968 v 57.25 l 40.451,-40.451 c -11.76,-8.504 -25.53,-14.389 -40.451,-16.799 z"
           inkscape:connector-curvature="0" /></g></g><g
       id="g42"><g
         id="g40"><path
           id="path38"
           d="m 380.803,271.236 c -2.826,23.277 -12.031,44.615 -25.819,62.201 l 35.194,35.194 c 22.558,-26.831 37.231,-60.494 40.424,-97.395 h -49.799 z"
           inkscape:connector-curvature="0" /></g></g><g
       id="g48"><g
         id="g46"><path
           id="path44"
           d="m 333.235,200.312 -40.451,40.451 h 57.25 c -2.411,-14.921 -8.296,-28.69 -16.799,-40.451 z"
           inkscape:connector-curvature="0" /></g></g><g
       id="g54"><g
         id="g52"><path
           id="path50"
           d="m 178.766,200.312 c -8.504,11.761 -14.389,25.531 -16.798,40.451 h 57.25 z"
           inkscape:connector-curvature="0" /></g></g><g
       id="g60"><g
         id="g58"><path
           id="path56"
           d="m 333.437,354.984 c -17.585,13.787 -38.923,22.994 -62.201,25.819 v 49.799 c 36.901,-3.193 70.565,-17.866 97.395,-40.424 z"
           inkscape:connector-curvature="0" /></g></g><g
       id="g66"><g
         id="g64"><path
           id="path62"
           d="M 131.197,271.235 H 81.399 c 3.193,36.901 17.866,70.565 40.424,97.395 l 35.194,-35.194 c -13.789,-17.585 -22.996,-38.922 -25.82,-62.201 z"
           inkscape:connector-curvature="0" /></g></g><g
       id="g72"><g
         id="g70"><path
           id="path68"
           d="m 121.822,143.368 c -22.558,26.831 -37.231,60.494 -40.424,97.395 h 49.799 c 2.825,-23.278 12.031,-44.616 25.819,-62.201 z"
           inkscape:connector-curvature="0" /></g></g><g
       id="g78"><g
         id="g76"><path
           id="path74"
           d="m 390.178,143.368 -35.194,35.194 c 13.787,17.585 22.993,38.924 25.819,62.201 h 49.799 c -3.193,-36.901 -17.865,-70.564 -40.424,-97.395 z"
           inkscape:connector-curvature="0" /></g></g><g
       id="g84"><g
         id="g82"><path
           id="path80"
           d="m 178.562,354.984 -35.194,35.194 c 26.831,22.558 60.494,37.232 97.395,40.424 v -49.799 c -23.277,-2.824 -44.615,-12.031 -62.201,-25.819 z"
           inkscape:connector-curvature="0" /></g></g><g
       id="g90"><g
         id="g88"><path
           id="path86"
           d="m 271.236,81.398 v 49.799 c 23.277,2.825 44.615,12.031 62.201,25.819 l 35.194,-35.194 C 341.801,99.263 308.138,84.59 271.236,81.398 Z"
           inkscape:connector-curvature="0" /></g></g><g
       id="g96"><g
         id="g94"><path
           id="path92"
           d="m 143.368,121.822 35.194,35.194 c 17.585,-13.787 38.924,-22.994 62.201,-25.819 V 81.398 c -36.901,3.193 -70.564,17.865 -97.395,40.424 z"
           inkscape:connector-curvature="0" /></g></g><g
       id="g102"><g
         id="g100"><path
           id="path98"
           d="m 461.178,271.235 c -3.332,45.291 -21.387,86.553 -49.39,119.006 l 36.004,36.004 c 38.438,-43.189 60.847,-97.291 64.207,-155.01 z"
           inkscape:connector-curvature="0" /></g></g><g
       id="g108"><g
         id="g106"><path
           id="path104"
           d="M 50.821,271.235 H 0 c 3.36,57.719 25.769,111.822 64.207,155.01 l 36.004,-36.004 C 72.207,357.789 54.153,316.527 50.821,271.235 Z"
           inkscape:connector-curvature="0" /></g></g><g
       id="g114"><g
         id="g112"><path
           id="path110"
           d="m 390.242,411.788 c -32.453,28.004 -73.715,46.059 -119.006,49.391 v 50.82 c 57.719,-3.36 111.821,-25.77 155.01,-64.207 z"
           inkscape:connector-curvature="0" /></g></g><g
       id="g120"><g
         id="g118"><path
           id="path116"
           d="M 64.207,85.754 C 25.769,128.943 3.36,183.045 0,240.764 h 50.821 c 3.332,-45.291 21.387,-86.553 49.39,-119.006 z"
           inkscape:connector-curvature="0" /></g></g><g
       id="g126"><g
         id="g124"><path
           id="path122"
           d="m 121.758,411.788 -36.004,36.004 c 43.189,38.437 97.291,60.847 155.01,64.207 v -50.82 C 195.472,457.847 154.21,439.792 121.758,411.788 Z"
           inkscape:connector-curvature="0" /></g></g><g
       id="g132"><g
         id="g130"><path
           id="path128"
           d="m 85.754,64.207 36.004,36.004 C 154.211,72.207 195.473,54.152 240.764,50.82 V 0 C 183.046,3.36 128.943,25.77 85.754,64.207 Z"
           inkscape:connector-curvature="0" /></g></g><g
       id="g138"><g
         id="g136"><path
           id="path134"
           d="m 271.235,0 v 50.821 c 45.291,3.332 86.553,21.387 119.006,49.391 L 426.245,64.208 C 383.057,25.77 328.954,3.36 271.235,0 Z"
           inkscape:connector-curvature="0" /></g></g><g
       id="g144"><g
         id="g142"><path
           id="path140"
           d="m 447.792,85.754 -36.004,36.004 c 28.004,32.453 46.058,73.715 49.39,119.006 h 50.821 C 508.639,183.045 486.23,128.942 447.792,85.754 Z"
           inkscape:connector-curvature="0" /></g></g></g><g
     id="g146" /><g
     id="g148" /><g
     id="g150" /><g
     id="g152" /><g
     id="g154" /><g
     id="g156" /><g
     id="g158" /><g
     id="g160" /><g
     id="g162" /><g
     id="g164" /><g
     id="g166" /><g
     id="g168" /><g
     id="g170" /><g
     id="g172" /><g
     id="g174" /></svg>