<?xml version="1.0" encoding="UTF-8" standalone="no"?>
<!-- Generator: Adobe Illustrator 19.0.0, SVG Export Plug-In . SVG Version: 6.00 Build 0)  -->

<svg
   xmlns:dc="http://purl.org/dc/elements/1.1/"
   xmlns:cc="http://creativecommons.org/ns#"
   xmlns:rdf="http://www.w3.org/1999/02/22-rdf-syntax-ns#"
   xmlns:svg="http://www.w3.org/2000/svg"
   xmlns="http://www.w3.org/2000/svg"
   xmlns:sodipodi="http://sodipodi.sourceforge.net/DTD/sodipodi-0.dtd"
   xmlns:inkscape="http://www.inkscape.org/namespaces/inkscape"
   version="1.1"
   id="Layer_1"
   x="0px"
   y="0px"
   viewBox="0 0 511.999 511.999"
   style="enable-background:new 0 0 511.999 511.999;"
   xml:space="preserve"
   sodipodi:docname="markup-directions.svg"
   inkscape:version="0.92.2 (5c3e80d, 2017-08-06)"><metadata
     id="metadata181"><rdf:RDF><cc:Work
         rdf:about=""><dc:format>image/svg+xml</dc:format><dc:type
           rdf:resource="http://purl.org/dc/dcmitype/StillImage" /><dc:title></dc:title></cc:Work></rdf:RDF></metadata><defs
     id="defs179" /><sodipodi:namedview
     pagecolor="#ffffff"
     bordercolor="#666666"
     borderopacity="1"
     objecttolerance="10"
     gridtolerance="10"
     guidetolerance="10"
     inkscape:pageopacity="0"
     inkscape:pageshadow="2"
     inkscape:window-width="1182"
     inkscape:window-height="765"
     id="namedview177"
     showgrid="false"
     inkscape:zoom="0.46093841"
     inkscape:cx="140.59393"
     inkscape:cy="190.32085"
     inkscape:window-x="197"
     inkscape:window-y="49"
     inkscape:window-maximized="0"
     inkscape:current-layer="Layer_1" /><g
     id="g1696"><path
       sodipodi:nodetypes="ccccccc"
       inkscape:connector-curvature="0"
       id="path2"
       d="M 242.18359,23.865234 C 189.84608,26.912014 140.78791,47.232048 101.625,82.085938 160.8712,127.19359 242.18359,89.641525 242.18359,23.865234 Z m 0,0 C 228.65353,26.051484 112.28963,74.375598 101.625,82.085938 L 242.18359,222.64648 Z"
       style="stroke-width:0.90677965" /><path
       sodipodi:nodetypes="cccc"
       style="stroke-width:0.90677965"
       id="path8"
       d="m 101.62434,429.91304 c 10.66463,7.71126 127.03077,56.03717 140.55992,58.2216 l -9.1e-4,-198.78152 z"
       inkscape:connector-curvature="0" /><path
       sodipodi:nodetypes="cccc"
       style="stroke-width:0.90677965"
       id="path14"
       d="m 289.35312,269.81474 140.55992,140.55992 c 7.71125,-10.66464 56.03717,-127.03077 58.2216,-140.55992 z"
       inkscape:connector-curvature="0" /><path
       sodipodi:nodetypes="cccc"
       style="stroke-width:0.90677965"
       id="path20"
       d="m 269.81474,289.35312 9.1e-4,198.78152 c 13.53006,-2.18443 129.89527,-50.51034 140.55991,-58.2216 z"
       inkscape:connector-curvature="0" /><path
       sodipodi:nodetypes="cccc"
       style="stroke-width:0.90677965"
       id="path26"
       d="m 23.86436,269.81474 c 2.18443,13.53006 50.510352,129.89528 58.221602,140.55992 L 222.64588,269.81474 Z"
       inkscape:connector-curvature="0" /><path
       sodipodi:nodetypes="cccc"
       style="stroke-width:0.90677965"
       id="path32"
       d="M 269.81474,23.86436 V 222.64678 L 410.37466,82.086868 C 399.71093,74.375618 283.3448,26.0497 269.81474,23.86436 Z"
       inkscape:connector-curvature="0" /><path
       sodipodi:nodetypes="cccc"
       style="stroke-width:0.90677965"
       id="path44"
       d="m 429.91304,101.62434 -140.5581,140.55901 198.7797,9.1e-4 C 485.9484,228.6542 437.62339,112.28897 429.91304,101.62434 Z"
       inkscape:connector-curvature="0" /><g
       transform="matrix(0.90677966,0,0,0.90677966,23.86436,23.86436)"
       id="g54"><g
         id="g52"><path
           sodipodi:nodetypes="cccc"
           id="path50"
           d="M 64.207,85.753997 C 55.703,97.514997 2.409,225.844 0,240.764 l 219.218,-0.001 z"
           inkscape:connector-curvature="0" /></g></g><path
       sodipodi:nodetypes="ccc"
       style="stroke-width:0.90677965"
       id="path98"
       d="m 429.91304,410.37466 c 34.85479,-39.16291 55.17482,-88.2215 58.2216,-140.55992 -73.70125,10.11293 -104.78159,93.99993 -58.2216,140.55992 z"
       inkscape:connector-curvature="0" /><path
       sodipodi:nodetypes="ccc"
       style="stroke-width:0.90677965"
       id="path104"
       d="M 23.86436,269.81474 C 26.91114,322.15316 47.231165,371.21266 82.085962,410.37466 127.19242,351.1262 89.642247,269.81474 23.86436,269.81474 Z"
       inkscape:connector-curvature="0" /><path
       sodipodi:nodetypes="ccc"
       style="stroke-width:0.90677965"
       id="path110"
       d="m 269.81565,488.13464 c 52.33841,-3.04678 101.39701,-23.36771 140.55991,-58.2216 -59.24769,-45.10644 -140.55991,-7.55549 -140.55991,58.2216 z"
       inkscape:connector-curvature="0" /><path
       sodipodi:nodetypes="ccc"
       style="stroke-width:0.90677965"
       id="path116"
       d="M 82.085962,101.62434 C 47.231165,140.78725 26.91114,189.84584 23.86436,242.18426 97.565608,232.07133 128.64595,148.18433 82.085962,101.62434 Z"
       inkscape:connector-curvature="0" /><path
       sodipodi:nodetypes="ccc"
       style="stroke-width:0.90677965"
       id="path122"
       d="m 101.62434,429.91304 c 39.16291,34.85389 88.2215,55.17482 140.55992,58.2216 C 232.07071,414.43379 148.184,383.35338 101.62434,429.91304 Z"
       inkscape:connector-curvature="0" /><path
       sodipodi:nodetypes="ccc"
       style="stroke-width:0.90677965"
       id="path134"
       d="M 269.81474,23.86436 C 279.92779,97.565574 363.81459,128.64692 410.37466,82.086868 371.21266,47.232072 322.15316,26.91114 269.81474,23.86436 Z"
       inkscape:connector-curvature="0" /><path
       sodipodi:nodetypes="ccc"
       style="stroke-width:0.90677965"
       id="path140"
       d="m 429.91304,101.62434 c -45.10662,59.24839 -7.55631,140.55992 58.2216,140.55992 -3.04678,-52.33842 -23.36681,-101.39792 -58.2216,-140.55992 z"
       inkscape:connector-curvature="0" /></g><g
     id="g146" /><g
     id="g148" /><g
     id="g150" /><g
     id="g152" /><g
     id="g154" /><g
     id="g156" /><g
     id="g158" /><g
     id="g160" /><g
     id="g162" /><g
     id="g164" /><g
     id="g166" /><g
     id="g168" /><g
     id="g170" /><g
     id="g172" /><g
     id="g174" /></svg>