<?xml version="1.0" encoding="iso-8859-1"?>
<!-- Generator: Adobe Illustrator 19.0.0, SVG Export Plug-In . SVG Version: 6.00 Build 0)  -->
<svg version="1.1" id="Layer_1" xmlns="http://www.w3.org/2000/svg" xmlns:xlink="http://www.w3.org/1999/xlink" x="0px" y="0px"
	 viewBox="0 0 512 512" style="enable-background:new 0 0 512 512;" xml:space="preserve">
<g>
	<g>
		<path d="M22.481,373.975v0.001C10.065,373.976,0,384.042,0,396.458v69.748c0,12.416,10.065,22.481,22.481,22.481
			s22.481-10.065,22.481-22.481v-47.267h38.248v-44.964H22.481z"/>
	</g>
</g>
<g>
	<g>
		<path d="M314.467,23.313c-109.095,0-197.533,88.438-197.533,197.533v34.602c-14.378,0-22.54,0-37.218,0
			c-7.088,0-12.834,5.746-12.834,12.834v58.262c0,7.088,5.746,12.834,12.834,12.834c14.68,0,22.841,0,37.218,0v58.113
			c0,11.535,9.352,20.887,20.887,20.887h176.646C423.562,418.379,512,329.94,512,220.846S423.562,23.313,314.467,23.313z
			 M314.468,359.612c-76.517,0-138.766-62.25-138.766-138.766S237.951,82.079,314.468,82.079
			c76.516,0,138.766,62.249,138.766,138.765S390.984,359.612,314.468,359.612z"/>
	</g>
</g>
<g>
	<g>
		<path d="M314.468,115.802c-57.921,0-105.044,47.122-105.044,105.043s47.123,105.044,105.044,105.044
			s105.044-47.123,105.044-105.044C419.512,162.923,372.389,115.802,314.468,115.802z M296.578,243.653
			c2.788,0,5.242,3.458,5.242,7.472c0,4.014-2.454,7.695-5.242,7.695h-39.703c-3.122,0-7.583-2.119-7.583-5.352V242.65
			c0-17.509,35.13-27.547,35.13-41.71c0-3.569-2.23-7.918-8.475-7.918c-4.461,0-8.364,2.231-8.364,8.363
			c0,3.234-3.457,6.357-9.144,6.357c-4.461,0-7.806-2.008-7.806-9.033c0-13.605,12.49-21.413,25.204-21.413
			c12.936,0,25.985,8.141,25.985,23.086c0,24.201-34.461,32.119-34.461,42.268v1.003H296.578z M377.767,253.468h-0.001
			c0,3.568-4.349,5.352-8.698,5.352c-4.35,0-8.699-1.785-8.699-5.352v-41.822l-10.706,18.29c-1.45,2.453-3.68,3.234-5.799,3.234
			c-2.007,0-4.126-0.669-5.464-3.234l-10.594-19.405v42.937c0,3.568-4.349,5.352-8.698,5.352c-4.35,0-8.699-1.785-8.699-5.352
			v-67.473c0-6.357,4.349-8.698,8.699-8.698c6.245,0,8.922,0.67,13.495,8.698l11.487,20.075l11.486-20.075
			c4.572-8.029,7.249-8.698,13.495-8.698c4.461,0,8.698,2.341,8.698,8.698V253.468z"/>
	</g>
</g>
<g>
</g>
<g>
</g>
<g>
</g>
<g>
</g>
<g>
</g>
<g>
</g>
<g>
</g>
<g>
</g>
<g>
</g>
<g>
</g>
<g>
</g>
<g>
</g>
<g>
</g>
<g>
</g>
<g>
</g>
</svg>
