<?xml version="1.0" encoding="UTF-8" standalone="no"?>
<!-- Generator: Adobe Illustrator 18.1.1, SVG Export Plug-In . SVG Version: 6.00 Build 0)  -->

<svg
   xmlns:dc="http://purl.org/dc/elements/1.1/"
   xmlns:cc="http://creativecommons.org/ns#"
   xmlns:rdf="http://www.w3.org/1999/02/22-rdf-syntax-ns#"
   xmlns:svg="http://www.w3.org/2000/svg"
   xmlns="http://www.w3.org/2000/svg"
   xmlns:sodipodi="http://sodipodi.sourceforge.net/DTD/sodipodi-0.dtd"
   xmlns:inkscape="http://www.inkscape.org/namespaces/inkscape"
   version="1.1"
   id="Capa_1"
   x="0px"
   y="0px"
   viewBox="0 0 203.816 203.816"
   style="enable-background:new 0 0 203.816 203.816;"
   xml:space="preserve"
   sodipodi:docname="radar-off.svg"
   inkscape:version="0.92.2 (5c3e80d, 2017-08-06)"><metadata
     id="metadata59"><rdf:RDF><cc:Work
         rdf:about=""><dc:format>image/svg+xml</dc:format><dc:type
           rdf:resource="http://purl.org/dc/dcmitype/StillImage" /><dc:title /></cc:Work></rdf:RDF></metadata><defs
     id="defs57" /><sodipodi:namedview
     pagecolor="#ffffff"
     bordercolor="#666666"
     borderopacity="1"
     objecttolerance="10"
     gridtolerance="10"
     guidetolerance="10"
     inkscape:pageopacity="0"
     inkscape:pageshadow="2"
     inkscape:window-width="858"
     inkscape:window-height="642"
     id="namedview55"
     showgrid="false"
     inkscape:zoom="1.637528"
     inkscape:cx="17.795333"
     inkscape:cy="127.96961"
     inkscape:window-x="225"
     inkscape:window-y="157"
     inkscape:window-maximized="0"
     inkscape:current-layer="Capa_1" /><g
     id="g24" /><g
     id="g26" /><g
     id="g28" /><g
     id="g30" /><g
     id="g32" /><g
     id="g34" /><g
     id="g36" /><g
     id="g38" /><g
     id="g40" /><g
     id="g42" /><g
     id="g44" /><g
     id="g46" /><g
     id="g48" /><g
     id="g50" /><g
     id="g52" /><g
     id="g184"
     transform="matrix(0.9,0,0,0.9,10.194629,7.4157577)"><path
       id="path18"
       d="m 101.91016,75.277344 c -16.190775,0 -29.371097,13.1704 -29.371098,29.380856 0,16.19076 13.180323,29.35938 29.371098,29.35938 16.1992,0 29.37304,-13.16862 29.37304,-29.35938 C 131.272,88.447744 118.10094,75.277344 101.91016,75.277344 Z m -0.0645,6.40625 c 12.65614,0 22.94999,10.295274 22.95899,22.966796 0,12.65612 -10.29627,22.94922 -22.95899,22.94922 -12.656117,0 -22.958981,-10.2931 -22.958981,-22.94922 0,-12.671522 10.302864,-22.966796 22.958981,-22.966796 z"
       style="fill:#010002;stroke-width:2.81333971"
       inkscape:connector-curvature="0" /><path
       id="path18-8"
       d="m 101.94141,6.9257812 c -53.895125,0 -97.7675787,43.8420858 -97.7675819,97.8027388 0,53.89505 43.8724569,97.72851 97.7675819,97.72851 53.92314,0 97.77734,-43.83346 97.77734,-97.72851 C 199.68145,50.767867 155.83653,6.9257812 101.94141,6.9257812 Z m 0.002,6.1054688 c 50.52904,0 91.63307,41.102889 91.66797,91.69336 0,50.52898 -41.11265,91.62695 -91.66797,91.62695 -50.529045,0 -91.664063,-41.09797 -91.664063,-91.62695 2e-6,-50.590471 41.135018,-91.69336 91.664063,-91.69336 z"
       style="fill:#000000;stroke-width:9.36491394"
       inkscape:connector-curvature="0" /></g></svg>