<?xml version="1.0" encoding="UTF-8" standalone="no"?>
<!-- Generator: Adobe Illustrator 19.0.0, SVG Export Plug-In . SVG Version: 6.00 Build 0)  -->

<svg
   xmlns:dc="http://purl.org/dc/elements/1.1/"
   xmlns:cc="http://creativecommons.org/ns#"
   xmlns:rdf="http://www.w3.org/1999/02/22-rdf-syntax-ns#"
   xmlns:svg="http://www.w3.org/2000/svg"
   xmlns="http://www.w3.org/2000/svg"
   xmlns:sodipodi="http://sodipodi.sourceforge.net/DTD/sodipodi-0.dtd"
   xmlns:inkscape="http://www.inkscape.org/namespaces/inkscape"
   version="1.1"
   id="Capa_1"
   x="0px"
   y="0px"
   viewBox="0 0 512 512"
   style="enable-background:new 0 0 512 512;"
   xml:space="preserve"
   sodipodi:docname="radar-sweep.svg"
   inkscape:version="0.92.2 (5c3e80d, 2017-08-06)"><metadata
     id="metadata43"><rdf:RDF><cc:Work
         rdf:about=""><dc:format>image/svg+xml</dc:format><dc:type
           rdf:resource="http://purl.org/dc/dcmitype/StillImage" /></cc:Work></rdf:RDF></metadata><defs
     id="defs41" /><sodipodi:namedview
     pagecolor="#ffffff"
     bordercolor="#666666"
     borderopacity="1"
     objecttolerance="10"
     gridtolerance="10"
     guidetolerance="10"
     inkscape:pageopacity="0"
     inkscape:pageshadow="2"
     inkscape:window-width="888"
     inkscape:window-height="566"
     id="namedview39"
     showgrid="false"
     inkscape:zoom="0.65186406"
     inkscape:cx="228.07548"
     inkscape:cy="318.1672"
     inkscape:window-x="101"
     inkscape:window-y="182"
     inkscape:window-maximized="0"
     inkscape:current-layer="g4" /><g
     id="g6"
     transform="matrix(0.90677966,0,0,0.90677966,23.864407,23.864407)"><g
       id="g4"><path
         d="M 256,12.8 C 121.9056,12.8 12.8,121.9056 12.8,256 12.8,390.0944 121.9056,499.2 256,499.2 390.0944,499.2 499.2,390.0944 499.2,256 499.2,121.9056 390.0944,12.8 256,12.8 Z m 0,304 c 11.248,0 21.6448,-3.2832 30.6736,-8.6336 l 49.75798,45.56732 C 315.88118,369.78492 284.0592,383.88598 256,383.88598 188.9376,383.88598 128.11402,323.0624 128.11402,256 c 0,-67.0624 60.82358,-127.88598 127.88598,-127.88598 28.0592,0 57.75545,12.03613 78.36665,28.02653 L 286.6736,203.8032 C 277.6448,198.4832 267.248,195.2 256,195.2 c -33.5312,0 -60.8,27.2688 -60.8,60.8 0,33.5312 27.2688,60.8 60.8,60.8 z m 0,-208.60935 c -83.8128,0 -147.80935,63.99655 -147.80935,147.80935 0,83.8128 63.99655,147.80935 147.80935,147.80935 36.4192,0 67.33828,-13.4064 93.54308,-34.8384 l 56.04395,47.66265 C 368.25583,449.04 309.2,479.27663 256,479.27663 138.656,479.27663 32.723365,373.3136 32.723365,256 32.723365,138.656 138.656,32.723365 256,32.723365 c 53.2,0 105.96985,23.950654 143.33145,56.357054 L 349.54307,140.93372 C 323.33827,119.50172 292.4192,108.19065 256,108.19065 Z"
         id="path2"
         inkscape:connector-curvature="0"
         sodipodi:nodetypes="ssssssccsssccssssssccsssccs"
         style="stroke-width:0.94999999" /></g></g><g
     id="g8" /><g
     id="g10" /><g
     id="g12" /><g
     id="g14" /><g
     id="g16" /><g
     id="g18" /><g
     id="g20" /><g
     id="g22" /><g
     id="g24" /><g
     id="g26" /><g
     id="g28" /><g
     id="g30" /><g
     id="g32" /><g
     id="g34" /><g
     id="g36" /></svg>