<?xml version="1.0" encoding="UTF-8" standalone="no"?>
<!-- Generator: Adobe Illustrator 18.1.1, SVG Export Plug-In . SVG Version: 6.00 Build 0)  -->

<svg
   xmlns:dc="http://purl.org/dc/elements/1.1/"
   xmlns:cc="http://creativecommons.org/ns#"
   xmlns:rdf="http://www.w3.org/1999/02/22-rdf-syntax-ns#"
   xmlns:svg="http://www.w3.org/2000/svg"
   xmlns="http://www.w3.org/2000/svg"
   xmlns:sodipodi="http://sodipodi.sourceforge.net/DTD/sodipodi-0.dtd"
   xmlns:inkscape="http://www.inkscape.org/namespaces/inkscape"
   version="1.1"
   id="Capa_1"
   x="0px"
   y="0px"
   viewBox="0 0 203.816 203.816"
   style="enable-background:new 0 0 203.816 203.816;"
   xml:space="preserve"
   sodipodi:docname="radar-equivalent.svg"
   inkscape:version="0.92.2 (5c3e80d, 2017-08-06)"><metadata
     id="metadata59"><rdf:RDF><cc:Work
         rdf:about=""><dc:format>image/svg+xml</dc:format><dc:type
           rdf:resource="http://purl.org/dc/dcmitype/StillImage" /><dc:title /></cc:Work></rdf:RDF></metadata><defs
     id="defs57" /><sodipodi:namedview
     pagecolor="#ffffff"
     bordercolor="#666666"
     borderopacity="1"
     objecttolerance="10"
     gridtolerance="10"
     guidetolerance="10"
     inkscape:pageopacity="0"
     inkscape:pageshadow="2"
     inkscape:window-width="858"
     inkscape:window-height="642"
     id="namedview55"
     showgrid="false"
     inkscape:zoom="1.637528"
     inkscape:cx="17.795333"
     inkscape:cy="127.96961"
     inkscape:window-x="225"
     inkscape:window-y="157"
     inkscape:window-maximized="0"
     inkscape:current-layer="Capa_1" /><g
     id="g24" /><g
     id="g26" /><g
     id="g28" /><g
     id="g30" /><g
     id="g32" /><g
     id="g34" /><g
     id="g36" /><g
     id="g38" /><g
     id="g40" /><g
     id="g42" /><g
     id="g44" /><g
     id="g46" /><g
     id="g48" /><g
     id="g50" /><g
     id="g52" /><g
     id="g33"
     transform="matrix(0.9,0,0,0.9,10.194629,7.4157576)"><path
       inkscape:connector-curvature="0"
       id="path6"
       d="m 51.163,104.655 c 0,-10.096 3.013,-19.888 8.715,-28.294 l 0.265,-0.397 -2.709,-5.393 -0.845,1.16 c -7.108,9.688 -10.858,21.076 -10.858,32.929 0,14.838 5.798,28.846 16.316,39.457 l 0.565,0.562 0.619,-0.501 c 0.583,-0.472 1.16,-0.945 1.743,-1.424 l 1.868,-1.542 -0.694,-0.684 C 56.489,130.909 51.163,118.175 51.163,104.655 Z"
       style="fill:#010002" /><path
       inkscape:connector-curvature="0"
       id="path8"
       d="m 147.56,72.126 -0.712,-0.995 -0.734,0.991 c -0.759,1.045 -1.539,2.072 -2.326,3.063 l -0.397,0.515 0.365,0.537 c 5.83,8.471 8.904,18.295 8.904,28.416 0,11.613 -3.862,22.572 -11.177,31.687 l -0.415,0.526 1.038,1.417 c 0.344,0.372 0.701,0.734 1.056,1.095 0.279,0.268 0.548,0.537 0.809,0.816 l 0.684,0.752 0.651,-0.787 c 8.367,-10.207 12.798,-22.486 12.798,-35.509 -0.008,-11.645 -3.648,-22.893 -10.544,-32.524 z"
       style="fill:#010002" /><path
       inkscape:connector-curvature="0"
       id="path10"
       d="m 160.887,52.185 -0.73,-0.834 -0.651,0.902 c -0.723,1.016 -1.449,2.054 -2.169,3.128 l -0.379,0.573 0.444,0.515 c 11.689,13.399 18.127,30.51 18.127,48.186 0,17.408 -6.331,34.361 -17.805,47.742 l -0.573,0.669 0.658,0.576 c 0.601,0.526 1.206,1.045 1.807,1.55 l 1.678,1.424 0.573,-0.669 c 12.308,-14.366 19.086,-32.578 19.086,-51.292 0.001,-19.333 -7.128,-37.968 -20.066,-52.47 z"
       style="fill:#010002" /><path
       inkscape:connector-curvature="0"
       id="path12"
       d="m 28.305,104.655 c 0,-18.127 6.803,-35.617 19.168,-49.231 L 47.96,54.88 47.523,54.297 c -0.769,-1.034 -1.557,-2.044 -2.351,-3.063 l -0.644,-0.82 -0.709,0.762 c -13.507,14.655 -20.951,33.645 -20.951,53.479 0,19.759 7.394,38.705 20.825,53.339 l 0.537,0.583 0.641,-0.462 c 1.009,-0.734 2.026,-1.464 3.028,-2.197 l 0.802,-0.594 -0.68,-0.719 C 35.302,140.93 28.305,123.189 28.305,104.655 Z"
       style="fill:#010002" /><path
       id="path18"
       d="m 101.91016,75.277344 c -16.190775,0 -29.371097,13.1704 -29.371098,29.380856 0,16.19076 13.180323,29.35938 29.371098,29.35938 16.1992,0 29.37304,-13.16862 29.37304,-29.35938 C 131.272,88.447744 118.10094,75.277344 101.91016,75.277344 Z m -0.0645,6.40625 c 12.65614,0 22.94999,10.295274 22.95899,22.966796 0,12.65612 -10.29627,22.94922 -22.95899,22.94922 -12.656117,0 -22.958981,-10.2931 -22.958981,-22.94922 0,-12.671522 10.302864,-22.966796 22.958981,-22.966796 z"
       style="fill:#010002;stroke-width:2.81333971"
       inkscape:connector-curvature="0" /><path
       id="path18-8"
       d="m 101.94141,6.9257812 c -53.895125,0 -97.7675787,43.8420858 -97.7675819,97.8027388 0,53.89505 43.8724569,97.72851 97.7675819,97.72851 53.92314,0 97.77734,-43.83346 97.77734,-97.72851 C 199.68145,50.767867 155.83653,6.9257812 101.94141,6.9257812 Z m 0.002,6.1054688 c 50.52904,0 91.63307,41.102889 91.66797,91.69336 0,50.52898 -41.11265,91.62695 -91.66797,91.62695 -50.529045,0 -91.664063,-41.09797 -91.664063,-91.62695 2e-6,-50.590471 41.135018,-91.69336 91.664063,-91.69336 z"
       style="fill:#000000;stroke-width:9.36491394"
       inkscape:connector-curvature="0" /></g></svg>