<?xml version="1.0" encoding="UTF-8" standalone="no"?>
<!-- Generator: Adobe Illustrator 19.0.0, SVG Export Plug-In . SVG Version: 6.00 Build 0)  -->

<svg
   xmlns:dc="http://purl.org/dc/elements/1.1/"
   xmlns:cc="http://creativecommons.org/ns#"
   xmlns:rdf="http://www.w3.org/1999/02/22-rdf-syntax-ns#"
   xmlns:svg="http://www.w3.org/2000/svg"
   xmlns="http://www.w3.org/2000/svg"
   xmlns:sodipodi="http://sodipodi.sourceforge.net/DTD/sodipodi-0.dtd"
   xmlns:inkscape="http://www.inkscape.org/namespaces/inkscape"
   version="1.1"
   id="Capa_1"
   x="0px"
   y="0px"
   viewBox="0 0 512 512"
   style="enable-background:new 0 0 512 512;"
   xml:space="preserve"
   sodipodi:docname="cancel-targeting.svg"
   inkscape:version="0.92.2 (5c3e80d, 2017-08-06)"><metadata
     id="metadata51"><rdf:RDF><cc:Work
         rdf:about=""><dc:format>image/svg+xml</dc:format><dc:type
           rdf:resource="http://purl.org/dc/dcmitype/StillImage" /></cc:Work></rdf:RDF></metadata><defs
     id="defs49" /><sodipodi:namedview
     pagecolor="#ffffff"
     bordercolor="#666666"
     borderopacity="1"
     objecttolerance="10"
     gridtolerance="10"
     guidetolerance="10"
     inkscape:pageopacity="0"
     inkscape:pageshadow="2"
     inkscape:window-width="1243"
     inkscape:window-height="780"
     id="namedview47"
     showgrid="false"
     inkscape:zoom="0.32593203"
     inkscape:cx="-475.05317"
     inkscape:cy="410.09594"
     inkscape:window-x="262"
     inkscape:window-y="95"
     inkscape:window-maximized="0"
     inkscape:current-layer="Capa_1" /><g
     id="g14"
     transform="matrix(0.44185533,-0.44154581,0.44185533,0.44154581,29.681239,256.48741)"><g
       id="g12"><g
         id="g10"><path
           d="M 177.592,0 H 20.105 C 9,0 0,9 0,20.105 v 156.817 c 0,11.104 9,20.105 20.105,20.105 11.104,0 20.105,-9 20.105,-20.105 V 40.209 h 137.382 c 11.104,0 20.105,-9 20.105,-20.105 C 197.696,9 188.696,0 177.592,0 Z"
           id="path2"
           inkscape:connector-curvature="0" /><path
           d="M 176.921,471.12 H 40.209 V 334.408 c 0,-11.104 -9,-20.105 -20.105,-20.105 C 9,314.304 0,323.304 0,334.408 v 156.817 c 0,11.104 9,20.105 20.105,20.105 h 156.817 c 11.104,0 20.105,-9 20.105,-20.105 0,-11.105 -9.001,-20.105 -20.106,-20.105 z"
           id="path4"
           inkscape:connector-curvature="0" /><path
           d="m 491.225,314.304 c -11.104,0 -20.105,9 -20.105,20.105 V 471.791 H 334.408 c -11.104,0 -20.105,9 -20.105,20.105 0,11.105 9,20.105 20.105,20.105 h 156.817 c 11.104,0 20.105,-8.994 20.105,-20.105 V 334.408 c 0,-11.104 -9,-20.104 -20.105,-20.104 z"
           id="path6"
           inkscape:connector-curvature="0" /><path
           d="M 491.895,0 H 334.408 c -11.104,0 -20.105,9 -20.105,20.105 0,11.104 9,20.105 20.105,20.105 H 471.79 v 137.382 c 0,11.104 9,20.105 20.105,20.105 11.111,0 20.105,-9 20.105,-20.105 V 20.105 C 512,9 503,0 491.895,0 Z"
           id="path8"
           inkscape:connector-curvature="0" /></g></g></g><g
     id="g16" /><g
     id="g18" /><g
     id="g20" /><g
     id="g22" /><g
     id="g24" /><g
     id="g26" /><g
     id="g28" /><g
     id="g30" /><g
     id="g32" /><g
     id="g34" /><g
     id="g36" /><g
     id="g38" /><g
     id="g40" /><g
     id="g42" /><g
     id="g44" /><g
     inkscape:groupmode="layer"
     id="layer1"
     inkscape:label="cross"><rect
       id="rect3745"
       width="512.2851"
       height="21.47687"
       x="-255.45987"
       y="351.12271"
       style="stroke-width:1.05155241"
       transform="rotate(-45)" /><rect
       id="rect3745-3"
       width="512.2851"
       height="21.47687"
       x="105.36917"
       y="-10.98462"
       style="stroke-width:1.05155241"
       transform="rotate(45)" /></g></svg>