<?xml version="1.0" encoding="UTF-8" standalone="no"?>
<!-- Generator: Adobe Illustrator 19.0.0, SVG Export Plug-In . SVG Version: 6.00 Build 0)  -->

<svg
   xmlns:dc="http://purl.org/dc/elements/1.1/"
   xmlns:cc="http://creativecommons.org/ns#"
   xmlns:rdf="http://www.w3.org/1999/02/22-rdf-syntax-ns#"
   xmlns:svg="http://www.w3.org/2000/svg"
   xmlns="http://www.w3.org/2000/svg"
   xmlns:sodipodi="http://sodipodi.sourceforge.net/DTD/sodipodi-0.dtd"
   xmlns:inkscape="http://www.inkscape.org/namespaces/inkscape"
   version="1.1"
   id="Capa_1"
   x="0px"
   y="0px"
   viewBox="0 0 512 512"
   style="enable-background:new 0 0 512 512;"
   xml:space="preserve"
   sodipodi:docname="weapon.svg"
   inkscape:version="0.92.2 (5c3e80d, 2017-08-06)"><metadata
     id="metadata51"><rdf:RDF><cc:Work
         rdf:about=""><dc:format>image/svg+xml</dc:format><dc:type
           rdf:resource="http://purl.org/dc/dcmitype/StillImage" /><dc:title /></cc:Work></rdf:RDF></metadata><defs
     id="defs49" /><sodipodi:namedview
     pagecolor="#ffffff"
     bordercolor="#666666"
     borderopacity="1"
     objecttolerance="10"
     gridtolerance="10"
     guidetolerance="10"
     inkscape:pageopacity="0"
     inkscape:pageshadow="2"
     inkscape:window-width="1089"
     inkscape:window-height="633"
     id="namedview47"
     showgrid="false"
     inkscape:zoom="0.4609375"
     inkscape:cx="200.41014"
     inkscape:cy="231.36071"
     inkscape:window-x="444"
     inkscape:window-y="126"
     inkscape:window-maximized="0"
     inkscape:current-layer="layer1"
     showguides="false"><inkscape:grid
       type="xygrid"
       id="grid35" /></sodipodi:namedview><g
     id="g16" /><g
     id="g18" /><g
     id="g20" /><g
     id="g22" /><g
     id="g24" /><g
     id="g26" /><g
     id="g28" /><g
     id="g30" /><g
     id="g32" /><g
     id="g34" /><g
     id="g36" /><g
     id="g38" /><g
     id="g40" /><g
     id="g42" /><g
     id="g44" /><g
     inkscape:groupmode="layer"
     id="layer1"
     inkscape:label="cross"><g
       id="g46"><g
         transform="matrix(0.44185533,-0.44154581,0.44185533,0.44154581,29.681239,256.48741)"
         id="g14"
         style="enable-background:new 0 0 512 512"><g
           id="g12"><g
             id="g10"><path
               inkscape:connector-curvature="0"
               id="path2"
               d="M 177.592,0 H 20.105 C 9,0 0,9 0,20.105 v 156.817 c 0,11.104 9,20.105 20.105,20.105 11.104,0 20.105,-9 20.105,-20.105 V 40.209 h 137.382 c 11.104,0 20.105,-9 20.105,-20.105 C 197.696,9 188.696,0 177.592,0 Z" /><path
               inkscape:connector-curvature="0"
               id="path4"
               d="M 176.921,471.12 H 40.209 V 334.408 c 0,-11.104 -9,-20.105 -20.105,-20.105 C 9,314.304 0,323.304 0,334.408 v 156.817 c 0,11.104 9,20.105 20.105,20.105 h 156.817 c 11.104,0 20.105,-9 20.105,-20.105 0,-11.105 -9.001,-20.105 -20.106,-20.105 z" /><path
               inkscape:connector-curvature="0"
               id="path6"
               d="m 491.225,314.304 c -11.104,0 -20.105,9 -20.105,20.105 V 471.791 H 334.408 c -11.104,0 -20.105,9 -20.105,20.105 0,11.105 9,20.105 20.105,20.105 h 156.817 c 11.104,0 20.105,-8.994 20.105,-20.105 V 334.408 c 0,-11.104 -9,-20.104 -20.105,-20.104 z" /><path
               inkscape:connector-curvature="0"
               id="path8"
               d="M 491.895,0 H 334.408 c -11.104,0 -20.105,9 -20.105,20.105 0,11.104 9,20.105 20.105,20.105 H 471.79 v 137.382 c 0,11.104 9,20.105 20.105,20.105 11.111,0 20.105,-9 20.105,-20.105 V 20.105 C 512,9 503,0 491.895,0 Z" /></g></g></g><circle
         style="stroke-width:8.39556599"
         r="67.528397"
         cy="258.02692"
         cx="256.59714"
         id="path71" /></g></g></svg>