<?xml version="1.0" encoding="UTF-8" standalone="no"?>
<!-- Generator: Adobe Illustrator 19.0.0, SVG Export Plug-In . SVG Version: 6.00 Build 0)  -->

<svg
   xmlns:dc="http://purl.org/dc/elements/1.1/"
   xmlns:cc="http://creativecommons.org/ns#"
   xmlns:rdf="http://www.w3.org/1999/02/22-rdf-syntax-ns#"
   xmlns:svg="http://www.w3.org/2000/svg"
   xmlns="http://www.w3.org/2000/svg"
   xmlns:sodipodi="http://sodipodi.sourceforge.net/DTD/sodipodi-0.dtd"
   xmlns:inkscape="http://www.inkscape.org/namespaces/inkscape"
   version="1.1"
   id="Capa_1"
   x="0px"
   y="0px"
   viewBox="0 0 512 512"
   style="enable-background:new 0 0 512 512;"
   xml:space="preserve"
   sodipodi:docname="track.svg"
   inkscape:version="0.92.2 (5c3e80d, 2017-08-06)"><metadata
     id="metadata67"><rdf:RDF><cc:Work
         rdf:about=""><dc:format>image/svg+xml</dc:format><dc:type
           rdf:resource="http://purl.org/dc/dcmitype/StillImage" /></cc:Work></rdf:RDF></metadata><defs
     id="defs65" /><sodipodi:namedview
     pagecolor="#ffffff"
     bordercolor="#666666"
     borderopacity="1"
     objecttolerance="10"
     gridtolerance="10"
     guidetolerance="10"
     inkscape:pageopacity="0"
     inkscape:pageshadow="2"
     inkscape:window-width="640"
     inkscape:window-height="480"
     id="namedview63"
     showgrid="false"
     inkscape:zoom="0.4609375"
     inkscape:cx="256"
     inkscape:cy="256"
     inkscape:window-x="0"
     inkscape:window-y="0"
     inkscape:window-maximized="0"
     inkscape:current-layer="Capa_1" /><g
     id="g84"
     transform="matrix(0.80508475,0,0,0.80508475,49.898305,49.898305)"><g
       id="g6"><g
         id="g4"><path
           id="path2"
           d="m 71.162,156.863 c -5.684,-6.328 -16.641,-6.328 -22.324,0 C 40.679,165.945 0,212.761 0,241.883 c 0,33.091 26.909,60 60,60 33.091,0 60,-26.909 60,-60 0,-29.122 -40.679,-75.938 -48.838,-85.02 z"
           inkscape:connector-curvature="0" /></g></g><g
       id="g12"><g
         id="g10"><path
           id="path8"
           d="m 191.162,4.863 c -5.684,-6.328 -16.641,-6.328 -22.324,0 C 160.679,13.945 120,62.762 120,91.883 c 0,33.091 26.909,60 60,60 33.091,0 60,-26.909 60,-60 0,-29.122 -40.679,-77.938 -48.838,-87.02 z"
           inkscape:connector-curvature="0" /></g></g><g
       id="g18"><g
         id="g16"><path
           id="path14"
           d="m 343.162,4.863 c -5.683,-6.328 -16.641,-6.328 -22.324,0 C 312.679,13.945 272,62.762 272,91.883 c 0,33.091 26.909,60 60,60 33.091,0 60,-26.909 60,-60 0,-29.122 -40.679,-77.938 -48.838,-87.02 z"
           inkscape:connector-curvature="0" /></g></g><g
       id="g24"><g
         id="g22"><path
           id="path20"
           d="m 463.162,156.863 c -5.684,-6.328 -16.641,-6.328 -22.324,0 -8.159,9.082 -48.838,55.898 -48.838,85.02 0,33.091 26.909,60 60,60 33.091,0 60,-26.909 60,-60 0,-29.122 -40.679,-75.938 -48.838,-85.02 z"
           inkscape:connector-curvature="0" /></g></g><g
       id="g30"><g
         id="g28"><path
           id="path26"
           d="M 450.257,387.518 C 443.167,348.084 412.259,314.979 373.323,305.121 366.658,303.436 362,297.475 362,290.604 v -3.721 c 0,-57.891 -48.109,-105 -106,-105 -57.891,0 -106,47.109 -106,105 v 3.721 c 0,6.87 -4.658,12.832 -11.323,14.517 -38.936,9.857 -69.844,42.962 -76.934,82.396 -5.61,31.143 2.651,62.739 22.676,86.675 35.083,41.938 101.558,49.16 144.741,15.806 13.77,-10.635 39.91,-10.635 53.68,0 18.53,14.312 40.708,21.885 64.16,21.885 31.187,0 60.557,-13.74 80.581,-37.69 20.024,-23.935 28.286,-55.532 22.676,-86.675 z"
           inkscape:connector-curvature="0" /></g></g></g><g
     id="g32" /><g
     id="g34" /><g
     id="g36" /><g
     id="g38" /><g
     id="g40" /><g
     id="g42" /><g
     id="g44" /><g
     id="g46" /><g
     id="g48" /><g
     id="g50" /><g
     id="g52" /><g
     id="g54" /><g
     id="g56" /><g
     id="g58" /><g
     id="g60" /></svg>