<?xml version="1.0" encoding="UTF-8" standalone="no"?>
<!-- Generator: Adobe Illustrator 19.0.0, SVG Export Plug-In . SVG Version: 6.00 Build 0)  -->

<svg
   xmlns:dc="http://purl.org/dc/elements/1.1/"
   xmlns:cc="http://creativecommons.org/ns#"
   xmlns:rdf="http://www.w3.org/1999/02/22-rdf-syntax-ns#"
   xmlns:svg="http://www.w3.org/2000/svg"
   xmlns="http://www.w3.org/2000/svg"
   xmlns:sodipodi="http://sodipodi.sourceforge.net/DTD/sodipodi-0.dtd"
   xmlns:inkscape="http://www.inkscape.org/namespaces/inkscape"
   version="1.1"
   id="Layer_1"
   x="0px"
   y="0px"
   viewBox="0 0 489.044 489.044"
   style="enable-background:new 0 0 489.044 489.044;"
   xml:space="preserve"
   sodipodi:docname="track-2.svg"
   inkscape:version="0.92.2 (5c3e80d, 2017-08-06)"><metadata
     id="metadata108"><rdf:RDF><cc:Work
         rdf:about=""><dc:format>image/svg+xml</dc:format><dc:type
           rdf:resource="http://purl.org/dc/dcmitype/StillImage" /></cc:Work></rdf:RDF></metadata><defs
     id="defs106" /><sodipodi:namedview
     pagecolor="#ffffff"
     bordercolor="#666666"
     borderopacity="1"
     objecttolerance="10"
     gridtolerance="10"
     guidetolerance="10"
     inkscape:pageopacity="0"
     inkscape:pageshadow="2"
     inkscape:window-width="640"
     inkscape:window-height="480"
     id="namedview104"
     showgrid="false"
     inkscape:zoom="0.48257416"
     inkscape:cx="256.09435"
     inkscape:cy="268.36036"
     inkscape:window-x="772"
     inkscape:window-y="523"
     inkscape:window-maximized="0"
     inkscape:current-layer="Layer_1" /><g
     id="g247"
     transform="matrix(0.81881442,0,0,0.81881442,44.237516,45.114123)"><polygon
       points="230.318,103.044 198.918,197.044 430.218,103.044 199.018,8.944 "
       style="fill:#000000"
       id="XMLID_1304_" /><path
       inkscape:connector-curvature="0"
       id="path5"
       d="m 153.018,488.944 c 2.4,0 4.7,-1 6.4,-2.7 1.7,-1.7 2.7,-4 2.7,-6.4 0,-2.4 -1,-4.7 -2.7,-6.4 -1.7,-1.7 -4,-2.7 -6.4,-2.7 -2.4,0 -4.7,1 -6.4,2.7 -1.7,1.7 -2.7,4 -2.7,6.4 0,2.4 1,4.7 2.7,6.4 1.7,1.8 4,2.7 6.4,2.7 z" /><path
       inkscape:connector-curvature="0"
       id="path7"
       d="m 401.318,462.744 c 2.3,0 4.5,-0.8 6.3,-2.5 3.6,-3.5 3.7,-9.2 0.2,-12.8 -3.5,-3.6 -9.2,-3.7 -12.8,-0.3 -3.6,3.5 -3.7,9.2 -0.3,12.8 1.8,1.8 4.2,2.8 6.6,2.8 z" /><path
       inkscape:connector-curvature="0"
       id="path9"
       d="m 416.118,436.244 c 1.3,0.7 2.7,1 4.1,1 3.3,0 6.5,-1.8 8.1,-5 2.3,-4.5 0.5,-9.9 -4,-12.2 -4.5,-2.3 -9.9,-0.5 -12.2,4 -2.3,4.5 -0.5,9.9 4,12.2 z" /><path
       inkscape:connector-curvature="0"
       id="path11"
       d="m 421.218,344.344 c 4.3,-2.6 5.6,-8.2 3,-12.4 -2.6,-4.3 -8.2,-5.6 -12.5,-3 -4.3,2.6 -5.6,8.2 -3,12.5 1.7,2.8 4.7,4.3 7.7,4.3 1.7,-0.1 3.3,-0.5 4.8,-1.4 z" /><path
       inkscape:connector-curvature="0"
       id="path13"
       d="m 419.318,367.944 c 0.9,4.3 4.7,7.2 8.8,7.2 0.6,0 1.3,-0.1 1.9,-0.2 4.9,-1 8,-5.8 7,-10.7 -1,-4.9 -5.8,-8 -10.7,-7 -4.9,1 -8,5.8 -7,10.7 z" /><path
       inkscape:connector-curvature="0"
       id="path15"
       d="m 402.618,318.444 c 3.2,-3.9 2.6,-9.6 -1.3,-12.8 -3.9,-3.2 -9.6,-2.6 -12.8,1.3 -3.2,3.9 -2.6,9.6 1.3,12.8 1.7,1.4 3.7,2 5.7,2 2.7,0 5.3,-1.1 7.1,-3.3 z" /><path
       inkscape:connector-curvature="0"
       id="path17"
       d="m 49.818,212.444 c 0.7,4.5 4.6,7.8 9,7.8 0.4,0 0.9,0 1.3,-0.1 5,-0.7 8.4,-5.3 7.7,-10.3 -0.7,-5 -5.3,-8.4 -10.3,-7.7 -5,0.7 -8.4,5.3 -7.7,10.3 z" /><path
       inkscape:connector-curvature="0"
       id="path19"
       d="m 75.218,141.844 c -4.3,-2.5 -9.9,-1.1 -12.4,3.2 -2.5,4.3 -1.1,9.9 3.2,12.4 1.4,0.8 3,1.2 4.6,1.2 3.1,0 6.1,-1.6 7.8,-4.5 2.6,-4.2 1.2,-9.8 -3.2,-12.3 z" /><path
       inkscape:connector-curvature="0"
       id="path21"
       d="m 88.018,275.444 c 2.4,0 4.9,-1 6.6,-2.9 3.4,-3.7 3.2,-9.4 -0.5,-12.8 -3.7,-3.4 -9.4,-3.2 -12.8,0.5 -3.4,3.7 -3.2,9.4 0.5,12.8 1.8,1.6 4,2.4 6.2,2.4 z" /><path
       inkscape:connector-curvature="0"
       id="path23"
       d="m 118.218,275.444 c -4.6,-2 -9.9,0.1 -11.9,4.7 -2,4.6 0.1,9.9 4.7,11.9 1.2,0.5 2.4,0.7 3.6,0.7 3.5,0 6.8,-2 8.3,-5.5 2,-4.5 -0.1,-9.8 -4.7,-11.8 z" /><path
       inkscape:connector-curvature="0"
       id="path25"
       d="m 98.018,119.544 c -3.2,-3.8 -9,-4.3 -12.8,-1 -3.8,3.2 -4.3,9 -1,12.8 1.8,2.1 4.4,3.2 6.9,3.2 2.1,0 4.1,-0.7 5.9,-2.2 3.7,-3.3 4.2,-9 1,-12.8 z" /><path
       inkscape:connector-curvature="0"
       id="path27"
       d="m 57.718,188.244 c 0.6,0.1 1.2,0.2 1.7,0.2 4.2,0 8.1,-3 8.9,-7.4 0.9,-4.9 -2.3,-9.7 -7.2,-10.6 -4.9,-0.9 -9.7,2.3 -10.6,7.2 v 0 c -0.9,4.9 2.3,9.7 7.2,10.6 z" /><path
       inkscape:connector-curvature="0"
       id="path29"
       d="m 68.718,250.344 c 1.4,0 2.9,-0.3 4.2,-1 4.4,-2.3 6.1,-7.8 3.8,-12.2 -2.3,-4.4 -7.8,-6.1 -12.2,-3.8 -4.4,2.3 -6.1,7.8 -3.8,12.2 1.6,3 4.7,4.8 8,4.8 z" /><path
       inkscape:connector-curvature="0"
       id="path31"
       d="m 438.518,398.944 c 0.6,-5 -2.9,-9.5 -7.9,-10.1 -5,-0.6 -9.5,2.9 -10.1,7.8 -0.6,5 2.9,9.5 7.8,10.1 0.4,0.1 0.8,0.1 1.2,0.1 4.5,0 8.4,-3.3 9,-7.9 z" /><path
       inkscape:connector-curvature="0"
       id="path33"
       d="m 209.218,282.444 c -5,0 -9.1,4 -9.1,9.1 0,5 4.1,9.1 9.1,9.1 5,0 9.1,-4.1 9.1,-9.1 -0.1,-5.1 -4.1,-9.1 -9.1,-9.1 z" /><path
       inkscape:connector-curvature="0"
       id="path35"
       d="m 303.418,479.944 c 0,5 4,9.1 9.1,9.1 5,0 9.1,-4.1 9.1,-9.1 0,-5 -4.1,-9.1 -9.1,-9.1 -5,0 -9.1,4.1 -9.1,9.1 z" /><path
       inkscape:connector-curvature="0"
       id="path37"
       d="m 207.718,479.944 c 0,5 4,9.1 9.1,9.1 5,0 9.1,-4.1 9.1,-9.1 0,-5 -4.1,-9.1 -9.1,-9.1 -5,0 -9.1,4.1 -9.1,9.1 z" /><path
       inkscape:connector-curvature="0"
       id="path39"
       d="m 304.818,282.444 c -5,0 -9.1,4 -9.1,9.1 0,5 4.1,9.1 9.1,9.1 5,0 9.1,-4.1 9.1,-9.1 0,-5.1 -4,-9.1 -9.1,-9.1 z" /><path
       inkscape:connector-curvature="0"
       id="path41"
       d="m 241.118,282.444 c -5,0 -9.1,4 -9.1,9.1 0,5 4,9.1 9.1,9.1 5,0 9.1,-4.1 9.1,-9.1 -0.1,-5.1 -4.1,-9.1 -9.1,-9.1 z" /><path
       inkscape:connector-curvature="0"
       id="path43"
       d="m 175.918,479.944 c 0,5 4,9.1 9.1,9.1 5,0 9.1,-4.1 9.1,-9.1 0,-5 -4.1,-9.1 -9.1,-9.1 -5.1,0 -9.1,4.1 -9.1,9.1 z" /><path
       inkscape:connector-curvature="0"
       id="path45"
       d="m 239.618,479.944 c 0,5 4.1,9.1 9.1,9.1 5,0 9.1,-4.1 9.1,-9.1 0,-5 -4,-9.1 -9.1,-9.1 -5,0 -9.1,4.1 -9.1,9.1 z" /><path
       inkscape:connector-curvature="0"
       id="path47"
       d="m 271.518,479.944 c 0,5 4,9.1 9.1,9.1 5,0 9,-4.1 9,-9.1 0,-5 -4,-9.1 -9,-9.1 -5,0 -9.1,4.1 -9.1,9.1 z" /><path
       inkscape:connector-curvature="0"
       id="path49"
       d="m 273.018,282.444 c -5,0 -9.1,4 -9.1,9.1 0,5 4,9.1 9.1,9.1 5,0 9.1,-4.1 9.1,-9.1 -0.1,-5.1 -4.1,-9.1 -9.1,-9.1 z" /><path
       inkscape:connector-curvature="0"
       id="path51"
       d="m 168.218,291.444 c 0,5 4.1,9.1 9.1,9.1 5,0 9.1,-4.1 9.1,-9.1 0,-5 -4,-9.1 -9.1,-9.1 -5,0.1 -9.1,4.1 -9.1,9.1 z" /><path
       inkscape:connector-curvature="0"
       id="path53"
       d="m 158.518,102.844 c -0.1,-5 -4.3,-9 -9.3,-8.8 -5,0.1 -8.9,4.3 -8.8,9.3 0.1,5 4.3,8.9 9.3,8.8 5,-0.2 9,-4.3 8.8,-9.3 z" /><path
       inkscape:connector-curvature="0"
       id="path55"
       d="m 136.418,290.644 c -0.3,5 3.4,9.3 8.4,9.7 0.2,0 0.4,0 0.6,0 4.7,0 8.7,-3.6 9,-8.4 0.3,-5 -3.4,-9.3 -8.4,-9.7 -5,-0.4 -9.3,3.4 -9.6,8.4 z" /><path
       inkscape:connector-curvature="0"
       id="path57"
       d="m 126.818,105.944 c -1.8,-4.7 -7,-7 -11.7,-5.2 -4.7,1.8 -7,7 -5.2,11.7 1.4,3.6 4.8,5.8 8.5,5.8 1.1,0 2.2,-0.2 3.2,-0.6 4.7,-1.8 7,-7 5.2,-11.7 z" /><path
       inkscape:connector-curvature="0"
       id="path59"
       d="m 376.518,300.144 c 1.7,-4.7 -0.7,-9.9 -5.5,-11.6 v 0 c -4.7,-1.7 -9.9,0.7 -11.6,5.4 -1.7,4.7 0.7,9.9 5.5,11.6 1,0.4 2.1,0.5 3.1,0.5 3.7,0.1 7.2,-2.2 8.5,-5.9 z" /><path
       inkscape:connector-curvature="0"
       id="path61"
       d="m 336.818,282.444 c -5,0 -9.1,4 -9.1,9 0,5 4,9.1 9,9.1 0,0 0,0 0.1,0 5,0 9,-4 9.1,-9 -0.1,-5 -4.1,-9.1 -9.1,-9.1 z" /><path
       inkscape:connector-curvature="0"
       id="path63"
       d="m 375.018,480.544 c 1.3,0 2.5,-0.3 3.8,-0.8 4.6,-2.1 6.6,-7.5 4.5,-12 -2.1,-4.6 -7.4,-6.6 -12,-4.5 -4.6,2.1 -6.6,7.5 -4.5,12 1.5,3.3 4.8,5.3 8.2,5.3 z" /><path
       inkscape:connector-curvature="0"
       id="path65"
       d="m 335.318,480.344 c 0.4,4.7 4.4,8.3 9,8.3 0.3,0 0.5,0 0.8,0 5,-0.4 8.7,-4.8 8.2,-9.8 -0.4,-5 -4.8,-8.7 -9.8,-8.2 v 0 c -4.9,0.3 -8.6,4.7 -8.2,9.7 z" /><path
       inkscape:connector-curvature="0"
       id="path67"
       d="m 188.218,109.444 c 1.7,-1.7 2.6,-4 2.6,-6.4 0,-2.4 -1,-4.7 -2.6,-6.4 -1.7,-1.7 -4,-2.7 -6.4,-2.7 -2.4,0 -4.7,1 -6.4,2.7 -1.7,1.7 -2.7,4 -2.7,6.4 0,2.4 1,4.7 2.7,6.4 1.7,1.7 4,2.7 6.4,2.7 2.4,-0.1 4.7,-1 6.4,-2.7 z" /></g><g
     id="g73" /><g
     id="g75" /><g
     id="g77" /><g
     id="g79" /><g
     id="g81" /><g
     id="g83" /><g
     id="g85" /><g
     id="g87" /><g
     id="g89" /><g
     id="g91" /><g
     id="g93" /><g
     id="g95" /><g
     id="g97" /><g
     id="g99" /><g
     id="g101" /></svg>