<?xml version="1.0" encoding="UTF-8" standalone="no"?>
<!-- Generator: Adobe Illustrator 19.0.0, SVG Export Plug-In . SVG Version: 6.00 Build 0)  -->

<svg
   xmlns:dc="http://purl.org/dc/elements/1.1/"
   xmlns:cc="http://creativecommons.org/ns#"
   xmlns:rdf="http://www.w3.org/1999/02/22-rdf-syntax-ns#"
   xmlns:svg="http://www.w3.org/2000/svg"
   xmlns="http://www.w3.org/2000/svg"
   xmlns:sodipodi="http://sodipodi.sourceforge.net/DTD/sodipodi-0.dtd"
   xmlns:inkscape="http://www.inkscape.org/namespaces/inkscape"
   version="1.1"
   id="Capa_1"
   x="0px"
   y="0px"
   viewBox="0 0 59 59"
   style="enable-background:new 0 0 59 59;"
   xml:space="preserve"
   sodipodi:docname="trash-clear.svg"
   inkscape:version="0.92.2 (5c3e80d, 2017-08-06)"><metadata
     id="metadata43"><rdf:RDF><cc:Work
         rdf:about=""><dc:format>image/svg+xml</dc:format><dc:type
           rdf:resource="http://purl.org/dc/dcmitype/StillImage" /><dc:title /></cc:Work></rdf:RDF></metadata><defs
     id="defs41" /><sodipodi:namedview
     pagecolor="#ffffff"
     bordercolor="#666666"
     borderopacity="1"
     objecttolerance="10"
     gridtolerance="10"
     guidetolerance="10"
     inkscape:pageopacity="0"
     inkscape:pageshadow="2"
     inkscape:window-width="904"
     inkscape:window-height="696"
     id="namedview39"
     showgrid="false"
     inkscape:zoom="4"
     inkscape:cx="2.0337821"
     inkscape:cy="48.570418"
     inkscape:window-x="214"
     inkscape:window-y="104"
     inkscape:window-maximized="0"
     inkscape:current-layer="Capa_1" /><g
     id="g8" /><g
     id="g10" /><g
     id="g12" /><g
     id="g14" /><g
     id="g16" /><g
     id="g18" /><g
     id="g20" /><g
     id="g22" /><g
     id="g24" /><g
     id="g26" /><g
     id="g28" /><g
     id="g30" /><g
     id="g32" /><g
     id="g34" /><g
     id="g36" /><g
     id="g131"
     transform="matrix(0.9,0,0,0.9,3.0494043,2.95)"><path
       d="M 52.5,6 H 38.456 C 38.346,4.75 37.961,2.642 36.643,1.289 35.809,0.434 34.751,0 33.499,0 H 23.5 C 22.248,0 21.19,0.434 20.356,1.289 19.038,2.642 18.653,4.75 18.543,6 H 6.5 c -0.552,0 -1,0.447 -1,1 0,0.553 0.448,1 1,1 h 46 c 0.552,0 1,-0.447 1,-1 0,-0.553 -0.448,-1 -1,-1 z M 20.553,6 C 20.665,4.952 20.988,3.504 21.793,2.681 22.24,2.223 22.799,2 23.5,2 h 9.999 c 0.701,0 1.26,0.223 1.708,0.681 0.805,0.823 1.128,2.271 1.24,3.319 z"
       id="path2"
       inkscape:connector-curvature="0" /><path
       id="path4"
       d="M 8.6230469,10 10.455078,54.021484 C 10.492078,55.743484 11.564281,59 15.363281,59 h 28.273438 c 3.169257,0 4.425923,-2.258994 4.78125,-3.998047 A 18,18 0 0 1 39.75,57.25 18,18 0 0 1 29.447266,54 H 17.5 c -0.552,0 -1,-0.447 -1,-1 0,-0.553 0.448,-1 1,-1 h 9.5625 A 18,18 0 0 1 24.621094,49 H 17.5 c -0.552,0 -1,-0.447 -1,-1 0,-0.553 0.448,-1 1,-1 h 6.023438 a 18,18 0 0 1 -1.13086,-3 H 17.5 c -0.552,0 -1,-0.447 -1,-1 0,-0.553 0.448,-1 1,-1 h 4.474609 A 18,18 0 0 1 21.75,39.25 a 18,18 0 0 1 18,-18 18,18 0 0 1 10.03125,3.0625 L 50.376953,10 Z"
       inkscape:connector-curvature="0" /><g
       transform="matrix(0.60559194,0,0,0.60559194,24.011991,23.511764)"
       id="g103"><g
         id="g47"><path
           inkscape:connector-curvature="0"
           d="m 44.373,7.603 c -10.137,-10.137 -26.632,-10.138 -36.77,0 -10.138,10.138 -10.137,26.632 0,36.77 10.137,10.138 26.632,10.138 36.77,0 10.137,-10.138 10.137,-26.633 0,-36.77 z m -8.132,28.638 c -0.781,0.781 -2.047,0.781 -2.828,0 l -7.425,-7.425 -7.778,7.778 c -0.781,0.781 -2.047,0.781 -2.828,0 -0.781,-0.781 -0.781,-2.047 0,-2.828 l 7.778,-7.778 -7.425,-7.425 c -0.781,-0.781 -0.781,-2.048 0,-2.828 0.781,-0.781 2.047,-0.781 2.828,0 l 7.425,7.425 7.071,-7.071 c 0.781,-0.781 2.047,-0.781 2.828,0 0.781,0.781 0.781,2.047 0,2.828 l -7.071,7.071 7.425,7.425 c 0.781,0.781 0.781,2.047 0,2.828 z"
           id="path45" /></g><g
         id="g49" /><g
         id="g51" /><g
         id="g53" /><g
         id="g55" /><g
         id="g57" /><g
         id="g59" /><g
         id="g61" /><g
         id="g63" /><g
         id="g65" /><g
         id="g67" /><g
         id="g69" /><g
         id="g71" /><g
         id="g73" /><g
         id="g75" /><g
         id="g77" /></g></g></svg>