<?xml version="1.0" encoding="UTF-8" standalone="no"?>
<!-- Generator: Adobe Illustrator 19.0.0, SVG Export Plug-In . SVG Version: 6.00 Build 0)  -->

<svg
   xmlns:dc="http://purl.org/dc/elements/1.1/"
   xmlns:cc="http://creativecommons.org/ns#"
   xmlns:rdf="http://www.w3.org/1999/02/22-rdf-syntax-ns#"
   xmlns:svg="http://www.w3.org/2000/svg"
   xmlns="http://www.w3.org/2000/svg"
   xmlns:sodipodi="http://sodipodi.sourceforge.net/DTD/sodipodi-0.dtd"
   xmlns:inkscape="http://www.inkscape.org/namespaces/inkscape"
   version="1.1"
   id="Layer_1"
   x="0px"
   y="0px"
   viewBox="0 0 512.003 512.003"
   style="enable-background:new 0 0 512.003 512.003;"
   xml:space="preserve"
   sodipodi:docname="vector-2.svg"
   inkscape:version="0.92.2 (5c3e80d, 2017-08-06)"><metadata
     id="metadata43"><rdf:RDF><cc:Work
         rdf:about=""><dc:format>image/svg+xml</dc:format><dc:type
           rdf:resource="http://purl.org/dc/dcmitype/StillImage" /></cc:Work></rdf:RDF></metadata><defs
     id="defs41" /><sodipodi:namedview
     pagecolor="#ffffff"
     bordercolor="#666666"
     borderopacity="1"
     objecttolerance="10"
     gridtolerance="10"
     guidetolerance="10"
     inkscape:pageopacity="0"
     inkscape:pageshadow="2"
     inkscape:window-width="640"
     inkscape:window-height="480"
     id="namedview39"
     showgrid="false"
     inkscape:zoom="0.46093481"
     inkscape:cx="256.0015"
     inkscape:cy="256.0015"
     inkscape:window-x="326"
     inkscape:window-y="157"
     inkscape:window-maximized="0"
     inkscape:current-layer="Layer_1" /><g
     id="g6"
     transform="rotate(45,256.00157,256.00067)"><g
       id="g4"><path
         d="M 322.528,387.207 264.544,312.656 V 101.617 l 46.276,33.057 c 1.486,1.067 3.228,1.588 4.961,1.588 1.981,0 3.954,-0.692 5.542,-2.049 2.989,-2.545 3.851,-6.798 2.092,-10.316 L 263.639,4.342 c -2.895,-5.79 -12.382,-5.79 -15.277,0 l -59.777,119.554 c -1.759,3.51 -0.888,7.763 2.092,10.316 2.98,2.545 7.31,2.733 10.504,0.461 l 46.285,-33.057 v 211.048 l -57.984,74.542 c -1.161,1.494 -1.793,3.339 -1.793,5.243 v 111.015 c 0,3.646 2.314,6.891 5.764,8.078 3.433,1.178 7.276,0.043 9.513,-2.835 l 53.039,-68.197 53.031,68.189 c 1.648,2.126 4.159,3.296 6.746,3.296 0.922,0 1.862,-0.154 2.775,-0.461 3.45,-1.178 5.764,-4.424 5.764,-8.07 V 392.45 c 0,-1.904 -0.631,-3.749 -1.793,-5.243 z"
         id="path2"
         inkscape:connector-curvature="0" /></g></g><g
     id="g8" /><g
     id="g10" /><g
     id="g12" /><g
     id="g14" /><g
     id="g16" /><g
     id="g18" /><g
     id="g20" /><g
     id="g22" /><g
     id="g24" /><g
     id="g26" /><g
     id="g28" /><g
     id="g30" /><g
     id="g32" /><g
     id="g34" /><g
     id="g36" /></svg>